<mxfile host="app.diagrams.net" modified="2021-01-01T04:02:41.317Z" agent="5.0 (Macintosh; Intel Mac OS X 10_15_6) AppleWebKit/537.36 (KHTML, like Gecko) Chrome/86.0.4240.193 Safari/537.36" etag="8qCiUNZzxQbMq0FhoHBL" version="14.1.6" type="github">
  <diagram id="Lhp1KBNNmVFH-X-Yci8b" name="Page-1">
    <mxGraphModel dx="946" dy="536" grid="1" gridSize="10" guides="1" tooltips="1" connect="1" arrows="1" fold="1" page="1" pageScale="1" pageWidth="827" pageHeight="1169" math="0" shadow="0">
      <root>
        <mxCell id="0" />
        <mxCell id="1" parent="0" />
        <mxCell id="7uRwzr6Gp7finjDeKWDW-16" style="edgeStyle=none;rounded=0;orthogonalLoop=1;jettySize=auto;html=1;exitX=1;exitY=0.5;exitDx=0;exitDy=0;entryX=0;entryY=0.5;entryDx=0;entryDy=0;startArrow=none;startFill=0;endArrow=classic;endFill=1;sketch=1;" edge="1" parent="1" source="7uRwzr6Gp7finjDeKWDW-1" target="7uRwzr6Gp7finjDeKWDW-3">
          <mxGeometry relative="1" as="geometry" />
        </mxCell>
        <mxCell id="7uRwzr6Gp7finjDeKWDW-19" style="edgeStyle=none;rounded=0;orthogonalLoop=1;jettySize=auto;html=1;exitX=1;exitY=0.5;exitDx=0;exitDy=0;entryX=0;entryY=0.5;entryDx=0;entryDy=0;startArrow=none;startFill=0;endArrow=classic;endFill=1;sketch=1;" edge="1" parent="1" source="7uRwzr6Gp7finjDeKWDW-1" target="7uRwzr6Gp7finjDeKWDW-2">
          <mxGeometry relative="1" as="geometry" />
        </mxCell>
        <mxCell id="7uRwzr6Gp7finjDeKWDW-1" value="v1" style="rounded=1;whiteSpace=wrap;html=1;fillColor=#ffe6cc;strokeColor=#d79b00;shadow=0;sketch=1;" vertex="1" parent="1">
          <mxGeometry x="90" y="150" width="120" height="60" as="geometry" />
        </mxCell>
        <mxCell id="7uRwzr6Gp7finjDeKWDW-2" value="v1" style="rounded=1;whiteSpace=wrap;html=1;fillColor=#dae8fc;strokeColor=#6c8ebf;sketch=1;" vertex="1" parent="1">
          <mxGeometry x="294" y="70" width="120" height="60" as="geometry" />
        </mxCell>
        <mxCell id="7uRwzr6Gp7finjDeKWDW-3" value="v1" style="rounded=1;whiteSpace=wrap;html=1;fillColor=#dae8fc;strokeColor=#6c8ebf;sketch=1;" vertex="1" parent="1">
          <mxGeometry x="294" y="230" width="120" height="60" as="geometry" />
        </mxCell>
        <mxCell id="7uRwzr6Gp7finjDeKWDW-4" value="" style="shape=umlActor;verticalLabelPosition=bottom;verticalAlign=top;html=1;outlineConnect=0;sketch=1;" vertex="1" parent="1">
          <mxGeometry x="135" y="320" width="30" height="60" as="geometry" />
        </mxCell>
        <mxCell id="7uRwzr6Gp7finjDeKWDW-6" value="node" style="text;html=1;strokeColor=none;fillColor=none;align=center;verticalAlign=middle;whiteSpace=wrap;rounded=0;" vertex="1" parent="1">
          <mxGeometry x="130" y="110" width="40" height="20" as="geometry" />
        </mxCell>
        <mxCell id="7uRwzr6Gp7finjDeKWDW-7" value="node" style="text;html=1;strokeColor=none;fillColor=none;align=center;verticalAlign=middle;whiteSpace=wrap;rounded=0;" vertex="1" parent="1">
          <mxGeometry x="334" y="40" width="40" height="20" as="geometry" />
        </mxCell>
        <mxCell id="7uRwzr6Gp7finjDeKWDW-8" value="node" style="text;html=1;strokeColor=none;fillColor=none;align=center;verticalAlign=middle;whiteSpace=wrap;rounded=0;" vertex="1" parent="1">
          <mxGeometry x="330" y="200" width="40" height="20" as="geometry" />
        </mxCell>
        <mxCell id="7uRwzr6Gp7finjDeKWDW-13" value="" style="endArrow=classic;html=1;sketch=1;" edge="1" parent="1">
          <mxGeometry width="50" height="50" relative="1" as="geometry">
            <mxPoint x="150" y="300" as="sourcePoint" />
            <mxPoint x="149.5" y="230" as="targetPoint" />
          </mxGeometry>
        </mxCell>
        <mxCell id="7uRwzr6Gp7finjDeKWDW-14" value="" style="endArrow=none;html=1;startArrow=classic;startFill=1;endFill=0;sketch=1;" edge="1" parent="1">
          <mxGeometry width="50" height="50" relative="1" as="geometry">
            <mxPoint x="350" y="370" as="sourcePoint" />
            <mxPoint x="349.5" y="300" as="targetPoint" />
          </mxGeometry>
        </mxCell>
        <mxCell id="7uRwzr6Gp7finjDeKWDW-20" value="" style="shape=umlActor;verticalLabelPosition=bottom;verticalAlign=top;html=1;outlineConnect=0;sketch=1;" vertex="1" parent="1">
          <mxGeometry x="334" y="400" width="30" height="60" as="geometry" />
        </mxCell>
        <mxCell id="7uRwzr6Gp7finjDeKWDW-21" value="v1" style="text;html=1;strokeColor=none;fillColor=none;align=center;verticalAlign=middle;whiteSpace=wrap;rounded=0;shadow=0;sketch=1;" vertex="1" parent="1">
          <mxGeometry x="95" y="260" width="40" height="20" as="geometry" />
        </mxCell>
        <mxCell id="7uRwzr6Gp7finjDeKWDW-22" value="v1" style="text;html=1;strokeColor=none;fillColor=none;align=center;verticalAlign=middle;whiteSpace=wrap;rounded=0;shadow=0;sketch=1;" vertex="1" parent="1">
          <mxGeometry x="370" y="330" width="40" height="20" as="geometry" />
        </mxCell>
        <mxCell id="7uRwzr6Gp7finjDeKWDW-23" value="sync" style="text;html=1;strokeColor=none;fillColor=none;align=center;verticalAlign=middle;whiteSpace=wrap;rounded=0;shadow=0;sketch=1;" vertex="1" parent="1">
          <mxGeometry x="220" y="110" width="40" height="20" as="geometry" />
        </mxCell>
        <mxCell id="7uRwzr6Gp7finjDeKWDW-24" value="sync" style="text;html=1;strokeColor=none;fillColor=none;align=center;verticalAlign=middle;whiteSpace=wrap;rounded=0;shadow=0;sketch=1;" vertex="1" parent="1">
          <mxGeometry x="220" y="230" width="40" height="20" as="geometry" />
        </mxCell>
      </root>
    </mxGraphModel>
  </diagram>
</mxfile>
